<mxfile host="app.diagrams.net" modified="2023-10-24T12:47:59.815Z" agent="Mozilla/5.0 (Windows NT 10.0; Win64; x64) AppleWebKit/537.36 (KHTML, like Gecko) Chrome/118.0.0.0 Safari/537.36" etag="ilsZM8T2mfcw_rPPaowO" version="22.0.6" type="github">
  <diagram name="第 1 页" id="5bpUE36UesH0eet6_SM1">
    <mxGraphModel dx="1420" dy="744" grid="1" gridSize="10" guides="1" tooltips="1" connect="1" arrows="1" fold="1" page="1" pageScale="1" pageWidth="827" pageHeight="1169" math="0" shadow="0">
      <root>
        <mxCell id="0" />
        <mxCell id="1" parent="0" />
        <mxCell id="rVbubTMlxnYD2g3dcoR2-2" value="" style="rounded=0;whiteSpace=wrap;html=1;fillColor=#fff2cc;strokeColor=#d6b656;" vertex="1" parent="1">
          <mxGeometry x="100" y="200" width="130" height="210" as="geometry" />
        </mxCell>
        <mxCell id="rVbubTMlxnYD2g3dcoR2-20" style="edgeStyle=orthogonalEdgeStyle;rounded=0;orthogonalLoop=1;jettySize=auto;html=1;exitX=0.5;exitY=1;exitDx=0;exitDy=0;" edge="1" parent="1" source="rVbubTMlxnYD2g3dcoR2-1" target="rVbubTMlxnYD2g3dcoR2-3">
          <mxGeometry relative="1" as="geometry" />
        </mxCell>
        <mxCell id="rVbubTMlxnYD2g3dcoR2-1" value="Topic_A" style="rounded=1;whiteSpace=wrap;html=1;fillColor=#f8cecc;strokeColor=#b85450;fontStyle=1;fontSize=15;" vertex="1" parent="1">
          <mxGeometry x="354" y="60" width="120" height="60" as="geometry" />
        </mxCell>
        <mxCell id="rVbubTMlxnYD2g3dcoR2-3" value="Partition 1&lt;br&gt;(Leader)" style="shape=cylinder3;whiteSpace=wrap;html=1;boundedLbl=1;backgroundOutline=1;size=15;fillColor=#e1d5e7;strokeColor=#9673a6;fontStyle=1;fontSize=14;" vertex="1" parent="1">
          <mxGeometry x="117.5" y="220" width="95" height="70" as="geometry" />
        </mxCell>
        <mxCell id="rVbubTMlxnYD2g3dcoR2-4" value="Broker1" style="text;html=1;strokeColor=none;fillColor=none;align=center;verticalAlign=middle;whiteSpace=wrap;rounded=0;fontStyle=1;fontSize=15;" vertex="1" parent="1">
          <mxGeometry x="135" y="430" width="60" height="30" as="geometry" />
        </mxCell>
        <mxCell id="rVbubTMlxnYD2g3dcoR2-5" value="" style="rounded=0;whiteSpace=wrap;html=1;fillColor=#fff2cc;strokeColor=#d6b656;" vertex="1" parent="1">
          <mxGeometry x="260" y="200" width="130" height="210" as="geometry" />
        </mxCell>
        <mxCell id="rVbubTMlxnYD2g3dcoR2-6" value="Partition 1&lt;br&gt;(Follower)" style="shape=cylinder3;whiteSpace=wrap;html=1;boundedLbl=1;backgroundOutline=1;size=15;fillColor=#e1d5e7;strokeColor=#9673a6;fontStyle=1;fontSize=14;dashed=1;dashPattern=12 12;" vertex="1" parent="1">
          <mxGeometry x="277.5" y="280" width="95" height="70" as="geometry" />
        </mxCell>
        <mxCell id="rVbubTMlxnYD2g3dcoR2-7" value="Broker2" style="text;html=1;strokeColor=none;fillColor=none;align=center;verticalAlign=middle;whiteSpace=wrap;rounded=0;fontStyle=1;fontSize=15;" vertex="1" parent="1">
          <mxGeometry x="295" y="430" width="60" height="30" as="geometry" />
        </mxCell>
        <mxCell id="rVbubTMlxnYD2g3dcoR2-8" value="" style="rounded=0;whiteSpace=wrap;html=1;fillColor=#fff2cc;strokeColor=#d6b656;" vertex="1" parent="1">
          <mxGeometry x="414" y="200" width="130" height="210" as="geometry" />
        </mxCell>
        <mxCell id="rVbubTMlxnYD2g3dcoR2-9" value="Partition 1&lt;br&gt;(Follower)" style="shape=cylinder3;whiteSpace=wrap;html=1;boundedLbl=1;backgroundOutline=1;size=15;fillColor=#e1d5e7;strokeColor=#9673a6;fontStyle=1;fontSize=14;dashed=1;dashPattern=12 12;" vertex="1" parent="1">
          <mxGeometry x="431.5" y="280" width="95" height="70" as="geometry" />
        </mxCell>
        <mxCell id="rVbubTMlxnYD2g3dcoR2-10" value="Broker3" style="text;html=1;strokeColor=none;fillColor=none;align=center;verticalAlign=middle;whiteSpace=wrap;rounded=0;fontStyle=1;fontSize=15;" vertex="1" parent="1">
          <mxGeometry x="449" y="430" width="60" height="30" as="geometry" />
        </mxCell>
        <mxCell id="rVbubTMlxnYD2g3dcoR2-11" value="" style="rounded=0;whiteSpace=wrap;html=1;fillColor=#fff2cc;strokeColor=#d6b656;" vertex="1" parent="1">
          <mxGeometry x="570" y="200" width="130" height="210" as="geometry" />
        </mxCell>
        <mxCell id="rVbubTMlxnYD2g3dcoR2-23" style="edgeStyle=orthogonalEdgeStyle;rounded=0;orthogonalLoop=1;jettySize=auto;html=1;exitX=0.5;exitY=0;exitDx=0;exitDy=0;exitPerimeter=0;dashed=1;" edge="1" parent="1" source="rVbubTMlxnYD2g3dcoR2-12" target="rVbubTMlxnYD2g3dcoR2-3">
          <mxGeometry relative="1" as="geometry" />
        </mxCell>
        <mxCell id="rVbubTMlxnYD2g3dcoR2-12" value="Partition 1&lt;br&gt;(Follower)" style="shape=cylinder3;whiteSpace=wrap;html=1;boundedLbl=1;backgroundOutline=1;size=15;fillColor=#e1d5e7;strokeColor=#9673a6;fontStyle=1;fontSize=14;dashed=1;dashPattern=12 12;" vertex="1" parent="1">
          <mxGeometry x="587.5" y="280" width="95" height="70" as="geometry" />
        </mxCell>
        <mxCell id="rVbubTMlxnYD2g3dcoR2-13" value="Broker4" style="text;html=1;strokeColor=none;fillColor=none;align=center;verticalAlign=middle;whiteSpace=wrap;rounded=0;fontStyle=1;fontSize=15;" vertex="1" parent="1">
          <mxGeometry x="605" y="430" width="60" height="30" as="geometry" />
        </mxCell>
        <mxCell id="rVbubTMlxnYD2g3dcoR2-21" style="edgeStyle=orthogonalEdgeStyle;rounded=0;orthogonalLoop=1;jettySize=auto;html=1;exitX=0.5;exitY=0;exitDx=0;exitDy=0;exitPerimeter=0;entryX=1;entryY=0.5;entryDx=0;entryDy=0;entryPerimeter=0;dashed=1;dashPattern=8 8;" edge="1" parent="1" source="rVbubTMlxnYD2g3dcoR2-6" target="rVbubTMlxnYD2g3dcoR2-3">
          <mxGeometry relative="1" as="geometry" />
        </mxCell>
        <mxCell id="rVbubTMlxnYD2g3dcoR2-22" style="edgeStyle=orthogonalEdgeStyle;rounded=0;orthogonalLoop=1;jettySize=auto;html=1;exitX=0.5;exitY=0;exitDx=0;exitDy=0;exitPerimeter=0;entryX=1;entryY=0.5;entryDx=0;entryDy=0;entryPerimeter=0;dashed=1;dashPattern=8 8;" edge="1" parent="1" source="rVbubTMlxnYD2g3dcoR2-9" target="rVbubTMlxnYD2g3dcoR2-3">
          <mxGeometry relative="1" as="geometry" />
        </mxCell>
        <mxCell id="rVbubTMlxnYD2g3dcoR2-24" value="fetch" style="edgeLabel;html=1;align=center;verticalAlign=middle;resizable=0;points=[];fontStyle=1;fontSize=14;" vertex="1" connectable="0" parent="rVbubTMlxnYD2g3dcoR2-22">
          <mxGeometry x="0.6123" y="1" relative="1" as="geometry">
            <mxPoint as="offset" />
          </mxGeometry>
        </mxCell>
        <mxCell id="rVbubTMlxnYD2g3dcoR2-25" value="" style="rounded=0;whiteSpace=wrap;html=1;fillColor=#fff2cc;strokeColor=#d6b656;" vertex="1" parent="1">
          <mxGeometry x="100" y="640" width="130" height="160" as="geometry" />
        </mxCell>
        <mxCell id="rVbubTMlxnYD2g3dcoR2-26" value="Partition 1&lt;br&gt;(Leader)" style="shape=cylinder3;whiteSpace=wrap;html=1;boundedLbl=1;backgroundOutline=1;size=15;fillColor=#e1d5e7;strokeColor=#9673a6;fontStyle=1;fontSize=14;" vertex="1" parent="1">
          <mxGeometry x="117.5" y="660" width="95" height="70" as="geometry" />
        </mxCell>
        <mxCell id="rVbubTMlxnYD2g3dcoR2-27" value="" style="rounded=0;whiteSpace=wrap;html=1;fillColor=#fff2cc;strokeColor=#d6b656;" vertex="1" parent="1">
          <mxGeometry x="260" y="640" width="130" height="160" as="geometry" />
        </mxCell>
        <mxCell id="rVbubTMlxnYD2g3dcoR2-28" value="Partition 1&lt;br&gt;(Follower)" style="shape=cylinder3;whiteSpace=wrap;html=1;boundedLbl=1;backgroundOutline=1;size=15;fillColor=#e1d5e7;strokeColor=#9673a6;fontStyle=1;fontSize=14;dashed=1;dashPattern=12 12;" vertex="1" parent="1">
          <mxGeometry x="277.5" y="720" width="95" height="70" as="geometry" />
        </mxCell>
        <mxCell id="rVbubTMlxnYD2g3dcoR2-29" value="" style="rounded=0;whiteSpace=wrap;html=1;fillColor=#fff2cc;strokeColor=#d6b656;" vertex="1" parent="1">
          <mxGeometry x="414" y="640" width="130" height="160" as="geometry" />
        </mxCell>
        <mxCell id="rVbubTMlxnYD2g3dcoR2-30" value="Partition 1&lt;br&gt;(Follower)" style="shape=cylinder3;whiteSpace=wrap;html=1;boundedLbl=1;backgroundOutline=1;size=15;fillColor=#e1d5e7;strokeColor=#9673a6;fontStyle=1;fontSize=14;dashed=1;dashPattern=12 12;" vertex="1" parent="1">
          <mxGeometry x="431.5" y="720" width="95" height="70" as="geometry" />
        </mxCell>
        <mxCell id="rVbubTMlxnYD2g3dcoR2-31" value="" style="rounded=0;whiteSpace=wrap;html=1;fillColor=#fff2cc;strokeColor=#d6b656;" vertex="1" parent="1">
          <mxGeometry x="570" y="640" width="130" height="160" as="geometry" />
        </mxCell>
        <mxCell id="rVbubTMlxnYD2g3dcoR2-32" style="edgeStyle=orthogonalEdgeStyle;rounded=0;orthogonalLoop=1;jettySize=auto;html=1;exitX=0.5;exitY=0;exitDx=0;exitDy=0;exitPerimeter=0;dashed=1;" edge="1" parent="1" source="rVbubTMlxnYD2g3dcoR2-33" target="rVbubTMlxnYD2g3dcoR2-26">
          <mxGeometry relative="1" as="geometry" />
        </mxCell>
        <mxCell id="rVbubTMlxnYD2g3dcoR2-33" value="Partition 1&lt;br&gt;(Follower)" style="shape=cylinder3;whiteSpace=wrap;html=1;boundedLbl=1;backgroundOutline=1;size=15;fillColor=#e1d5e7;strokeColor=#9673a6;fontStyle=1;fontSize=14;dashed=1;dashPattern=12 12;" vertex="1" parent="1">
          <mxGeometry x="587.5" y="720" width="95" height="70" as="geometry" />
        </mxCell>
        <mxCell id="rVbubTMlxnYD2g3dcoR2-34" style="edgeStyle=orthogonalEdgeStyle;rounded=0;orthogonalLoop=1;jettySize=auto;html=1;exitX=0.5;exitY=0;exitDx=0;exitDy=0;exitPerimeter=0;entryX=1;entryY=0.5;entryDx=0;entryDy=0;entryPerimeter=0;dashed=1;dashPattern=8 8;" edge="1" parent="1" source="rVbubTMlxnYD2g3dcoR2-28" target="rVbubTMlxnYD2g3dcoR2-26">
          <mxGeometry relative="1" as="geometry" />
        </mxCell>
        <mxCell id="rVbubTMlxnYD2g3dcoR2-35" style="edgeStyle=orthogonalEdgeStyle;rounded=0;orthogonalLoop=1;jettySize=auto;html=1;exitX=0.5;exitY=0;exitDx=0;exitDy=0;exitPerimeter=0;entryX=1;entryY=0.5;entryDx=0;entryDy=0;entryPerimeter=0;dashed=1;dashPattern=8 8;" edge="1" parent="1" source="rVbubTMlxnYD2g3dcoR2-30" target="rVbubTMlxnYD2g3dcoR2-26">
          <mxGeometry relative="1" as="geometry" />
        </mxCell>
        <mxCell id="rVbubTMlxnYD2g3dcoR2-36" value="fetch" style="edgeLabel;html=1;align=center;verticalAlign=middle;resizable=0;points=[];fontStyle=1;fontSize=14;" vertex="1" connectable="0" parent="rVbubTMlxnYD2g3dcoR2-35">
          <mxGeometry x="0.6123" y="1" relative="1" as="geometry">
            <mxPoint as="offset" />
          </mxGeometry>
        </mxCell>
        <mxCell id="rVbubTMlxnYD2g3dcoR2-37" value="" style="rounded=0;whiteSpace=wrap;html=1;fillColor=#fff2cc;strokeColor=#d6b656;" vertex="1" parent="1">
          <mxGeometry x="720" y="640" width="130" height="160" as="geometry" />
        </mxCell>
        <mxCell id="rVbubTMlxnYD2g3dcoR2-38" value="Partition 1&lt;br&gt;(Follower)" style="shape=cylinder3;whiteSpace=wrap;html=1;boundedLbl=1;backgroundOutline=1;size=15;fillColor=#e1d5e7;strokeColor=#9673a6;fontStyle=1;fontSize=14;dashed=1;dashPattern=12 12;" vertex="1" parent="1">
          <mxGeometry x="737.5" y="720" width="95" height="70" as="geometry" />
        </mxCell>
        <mxCell id="rVbubTMlxnYD2g3dcoR2-39" style="edgeStyle=orthogonalEdgeStyle;rounded=0;orthogonalLoop=1;jettySize=auto;html=1;exitX=0.5;exitY=0;exitDx=0;exitDy=0;exitPerimeter=0;entryX=1;entryY=0.5;entryDx=0;entryDy=0;entryPerimeter=0;dashed=1;" edge="1" parent="1" source="rVbubTMlxnYD2g3dcoR2-38" target="rVbubTMlxnYD2g3dcoR2-26">
          <mxGeometry relative="1" as="geometry" />
        </mxCell>
        <mxCell id="rVbubTMlxnYD2g3dcoR2-40" value="" style="rounded=1;whiteSpace=wrap;html=1;fillColor=#b0e3e6;strokeColor=#0e8088;" vertex="1" parent="1">
          <mxGeometry x="120.5" y="810" width="79.5" height="190" as="geometry" />
        </mxCell>
        <mxCell id="rVbubTMlxnYD2g3dcoR2-41" value="1" style="rounded=0;whiteSpace=wrap;html=1;" vertex="1" parent="1">
          <mxGeometry x="129" y="820" width="60" height="20" as="geometry" />
        </mxCell>
        <mxCell id="rVbubTMlxnYD2g3dcoR2-42" value="2" style="rounded=0;whiteSpace=wrap;html=1;" vertex="1" parent="1">
          <mxGeometry x="129" y="850" width="60" height="20" as="geometry" />
        </mxCell>
        <mxCell id="rVbubTMlxnYD2g3dcoR2-43" value="3" style="rounded=0;whiteSpace=wrap;html=1;" vertex="1" parent="1">
          <mxGeometry x="129" y="880" width="60" height="20" as="geometry" />
        </mxCell>
        <mxCell id="rVbubTMlxnYD2g3dcoR2-44" value="4" style="rounded=0;whiteSpace=wrap;html=1;" vertex="1" parent="1">
          <mxGeometry x="129" y="910" width="60" height="20" as="geometry" />
        </mxCell>
        <mxCell id="rVbubTMlxnYD2g3dcoR2-45" value="5" style="rounded=0;whiteSpace=wrap;html=1;" vertex="1" parent="1">
          <mxGeometry x="129" y="940" width="60" height="20" as="geometry" />
        </mxCell>
        <mxCell id="rVbubTMlxnYD2g3dcoR2-46" value="6" style="rounded=0;whiteSpace=wrap;html=1;" vertex="1" parent="1">
          <mxGeometry x="129" y="970" width="60" height="20" as="geometry" />
        </mxCell>
        <mxCell id="rVbubTMlxnYD2g3dcoR2-47" value="" style="rounded=1;whiteSpace=wrap;html=1;fillColor=#b0e3e6;strokeColor=#0e8088;" vertex="1" parent="1">
          <mxGeometry x="285.25" y="810" width="79.5" height="190" as="geometry" />
        </mxCell>
        <mxCell id="rVbubTMlxnYD2g3dcoR2-48" value="1" style="rounded=0;whiteSpace=wrap;html=1;" vertex="1" parent="1">
          <mxGeometry x="293.75" y="820" width="60" height="20" as="geometry" />
        </mxCell>
        <mxCell id="rVbubTMlxnYD2g3dcoR2-49" value="2" style="rounded=0;whiteSpace=wrap;html=1;" vertex="1" parent="1">
          <mxGeometry x="293.75" y="850" width="60" height="20" as="geometry" />
        </mxCell>
        <mxCell id="rVbubTMlxnYD2g3dcoR2-50" value="3" style="rounded=0;whiteSpace=wrap;html=1;" vertex="1" parent="1">
          <mxGeometry x="293.75" y="880" width="60" height="20" as="geometry" />
        </mxCell>
        <mxCell id="rVbubTMlxnYD2g3dcoR2-51" value="4" style="rounded=0;whiteSpace=wrap;html=1;" vertex="1" parent="1">
          <mxGeometry x="293.75" y="910" width="60" height="20" as="geometry" />
        </mxCell>
        <mxCell id="rVbubTMlxnYD2g3dcoR2-54" value="" style="rounded=1;whiteSpace=wrap;html=1;fillColor=#b0e3e6;strokeColor=#0e8088;" vertex="1" parent="1">
          <mxGeometry x="439.25" y="810" width="79.5" height="190" as="geometry" />
        </mxCell>
        <mxCell id="rVbubTMlxnYD2g3dcoR2-55" value="1" style="rounded=0;whiteSpace=wrap;html=1;" vertex="1" parent="1">
          <mxGeometry x="447.75" y="820" width="60" height="20" as="geometry" />
        </mxCell>
        <mxCell id="rVbubTMlxnYD2g3dcoR2-56" value="2" style="rounded=0;whiteSpace=wrap;html=1;" vertex="1" parent="1">
          <mxGeometry x="447.75" y="850" width="60" height="20" as="geometry" />
        </mxCell>
        <mxCell id="rVbubTMlxnYD2g3dcoR2-57" value="3" style="rounded=0;whiteSpace=wrap;html=1;" vertex="1" parent="1">
          <mxGeometry x="447.75" y="880" width="60" height="20" as="geometry" />
        </mxCell>
        <mxCell id="rVbubTMlxnYD2g3dcoR2-58" value="4" style="rounded=0;whiteSpace=wrap;html=1;" vertex="1" parent="1">
          <mxGeometry x="447.75" y="910" width="60" height="20" as="geometry" />
        </mxCell>
        <mxCell id="rVbubTMlxnYD2g3dcoR2-59" value="5" style="rounded=0;whiteSpace=wrap;html=1;" vertex="1" parent="1">
          <mxGeometry x="447.75" y="940" width="60" height="20" as="geometry" />
        </mxCell>
        <mxCell id="rVbubTMlxnYD2g3dcoR2-60" value="6" style="rounded=0;whiteSpace=wrap;html=1;" vertex="1" parent="1">
          <mxGeometry x="447.75" y="970" width="60" height="20" as="geometry" />
        </mxCell>
        <mxCell id="rVbubTMlxnYD2g3dcoR2-61" value="" style="rounded=1;whiteSpace=wrap;html=1;fillColor=#b0e3e6;strokeColor=#0e8088;" vertex="1" parent="1">
          <mxGeometry x="595.25" y="810" width="79.5" height="190" as="geometry" />
        </mxCell>
        <mxCell id="rVbubTMlxnYD2g3dcoR2-62" value="1" style="rounded=0;whiteSpace=wrap;html=1;" vertex="1" parent="1">
          <mxGeometry x="603.75" y="820" width="60" height="20" as="geometry" />
        </mxCell>
        <mxCell id="rVbubTMlxnYD2g3dcoR2-63" value="2" style="rounded=0;whiteSpace=wrap;html=1;" vertex="1" parent="1">
          <mxGeometry x="603.75" y="850" width="60" height="20" as="geometry" />
        </mxCell>
        <mxCell id="rVbubTMlxnYD2g3dcoR2-64" value="3" style="rounded=0;whiteSpace=wrap;html=1;" vertex="1" parent="1">
          <mxGeometry x="603.75" y="880" width="60" height="20" as="geometry" />
        </mxCell>
        <mxCell id="rVbubTMlxnYD2g3dcoR2-65" value="4" style="rounded=0;whiteSpace=wrap;html=1;" vertex="1" parent="1">
          <mxGeometry x="603.75" y="910" width="60" height="20" as="geometry" />
        </mxCell>
        <mxCell id="rVbubTMlxnYD2g3dcoR2-66" value="5" style="rounded=0;whiteSpace=wrap;html=1;" vertex="1" parent="1">
          <mxGeometry x="603.75" y="940" width="60" height="20" as="geometry" />
        </mxCell>
        <mxCell id="rVbubTMlxnYD2g3dcoR2-68" value="" style="rounded=1;whiteSpace=wrap;html=1;fillColor=#b0e3e6;strokeColor=#0e8088;" vertex="1" parent="1">
          <mxGeometry x="748" y="810" width="79.5" height="190" as="geometry" />
        </mxCell>
        <mxCell id="rVbubTMlxnYD2g3dcoR2-69" value="1" style="rounded=0;whiteSpace=wrap;html=1;" vertex="1" parent="1">
          <mxGeometry x="756.5" y="820" width="60" height="20" as="geometry" />
        </mxCell>
        <mxCell id="rVbubTMlxnYD2g3dcoR2-70" value="2" style="rounded=0;whiteSpace=wrap;html=1;" vertex="1" parent="1">
          <mxGeometry x="756.5" y="850" width="60" height="20" as="geometry" />
        </mxCell>
        <mxCell id="rVbubTMlxnYD2g3dcoR2-71" value="3" style="rounded=0;whiteSpace=wrap;html=1;" vertex="1" parent="1">
          <mxGeometry x="756.5" y="880" width="60" height="20" as="geometry" />
        </mxCell>
        <mxCell id="rVbubTMlxnYD2g3dcoR2-72" value="4" style="rounded=0;whiteSpace=wrap;html=1;" vertex="1" parent="1">
          <mxGeometry x="756.5" y="910" width="60" height="20" as="geometry" />
        </mxCell>
        <mxCell id="rVbubTMlxnYD2g3dcoR2-73" value="5" style="rounded=0;whiteSpace=wrap;html=1;" vertex="1" parent="1">
          <mxGeometry x="756.5" y="940" width="60" height="20" as="geometry" />
        </mxCell>
        <mxCell id="rVbubTMlxnYD2g3dcoR2-74" value="6" style="rounded=0;whiteSpace=wrap;html=1;" vertex="1" parent="1">
          <mxGeometry x="756.5" y="970" width="60" height="20" as="geometry" />
        </mxCell>
        <mxCell id="rVbubTMlxnYD2g3dcoR2-75" value="" style="endArrow=classic;html=1;rounded=0;" edge="1" parent="1">
          <mxGeometry width="50" height="50" relative="1" as="geometry">
            <mxPoint x="474" y="680" as="sourcePoint" />
            <mxPoint x="620" y="590" as="targetPoint" />
          </mxGeometry>
        </mxCell>
        <mxCell id="rVbubTMlxnYD2g3dcoR2-76" value="" style="endArrow=classic;html=1;rounded=0;" edge="1" parent="1">
          <mxGeometry width="50" height="50" relative="1" as="geometry">
            <mxPoint x="777" y="670" as="sourcePoint" />
            <mxPoint x="640" y="590" as="targetPoint" />
          </mxGeometry>
        </mxCell>
        <mxCell id="rVbubTMlxnYD2g3dcoR2-77" value="ISR（In-Sync Replica）" style="text;html=1;strokeColor=none;fillColor=none;align=center;verticalAlign=middle;whiteSpace=wrap;rounded=0;fontStyle=1;fontSize=17;" vertex="1" parent="1">
          <mxGeometry x="530.25" y="555" width="226.25" height="30" as="geometry" />
        </mxCell>
        <mxCell id="rVbubTMlxnYD2g3dcoR2-78" value="" style="shape=image;html=1;verticalAlign=top;verticalLabelPosition=bottom;labelBackgroundColor=#ffffff;imageAspect=0;aspect=fixed;image=https://cdn2.iconfinder.com/data/icons/c9d/check.png" vertex="1" parent="1">
          <mxGeometry x="457.75" y="1010" width="40" height="40" as="geometry" />
        </mxCell>
        <mxCell id="rVbubTMlxnYD2g3dcoR2-79" value="" style="shape=image;html=1;verticalAlign=top;verticalLabelPosition=bottom;labelBackgroundColor=#ffffff;imageAspect=0;aspect=fixed;image=https://cdn2.iconfinder.com/data/icons/c9d/check.png" vertex="1" parent="1">
          <mxGeometry x="767.75" y="1010" width="40" height="40" as="geometry" />
        </mxCell>
        <mxCell id="rVbubTMlxnYD2g3dcoR2-100" style="edgeStyle=orthogonalEdgeStyle;rounded=0;orthogonalLoop=1;jettySize=auto;html=1;exitX=1;exitY=0.5;exitDx=0;exitDy=0;" edge="1" parent="1" source="rVbubTMlxnYD2g3dcoR2-80" target="rVbubTMlxnYD2g3dcoR2-82">
          <mxGeometry relative="1" as="geometry" />
        </mxCell>
        <mxCell id="rVbubTMlxnYD2g3dcoR2-80" value="Kafka" style="ellipse;whiteSpace=wrap;html=1;aspect=fixed;fillColor=#b0e3e6;strokeColor=#0e8088;fontStyle=1;fontSize=15;" vertex="1" parent="1">
          <mxGeometry x="402" y="1469" width="80" height="80" as="geometry" />
        </mxCell>
        <mxCell id="rVbubTMlxnYD2g3dcoR2-99" style="edgeStyle=orthogonalEdgeStyle;rounded=0;orthogonalLoop=1;jettySize=auto;html=1;exitX=1;exitY=0.5;exitDx=0;exitDy=0;entryX=0;entryY=0.5;entryDx=0;entryDy=0;" edge="1" parent="1" source="rVbubTMlxnYD2g3dcoR2-81" target="rVbubTMlxnYD2g3dcoR2-80">
          <mxGeometry relative="1" as="geometry" />
        </mxCell>
        <mxCell id="rVbubTMlxnYD2g3dcoR2-81" value="Producer" style="rounded=1;whiteSpace=wrap;html=1;fillColor=#fff2cc;strokeColor=#d6b656;fontStyle=1;fontSize=15;" vertex="1" parent="1">
          <mxGeometry x="160" y="1479" width="120" height="60" as="geometry" />
        </mxCell>
        <mxCell id="rVbubTMlxnYD2g3dcoR2-82" value="Consumer" style="rounded=1;whiteSpace=wrap;html=1;fillColor=#fff2cc;strokeColor=#d6b656;fontStyle=1;fontSize=15;" vertex="1" parent="1">
          <mxGeometry x="605" y="1479" width="120" height="60" as="geometry" />
        </mxCell>
        <mxCell id="rVbubTMlxnYD2g3dcoR2-84" value="" style="image;sketch=0;aspect=fixed;html=1;points=[];align=center;fontSize=12;image=img/lib/mscae/Cache_Redis_Product.svg;" vertex="1" parent="1">
          <mxGeometry x="402" y="1300" width="83.33" height="70" as="geometry" />
        </mxCell>
        <mxCell id="rVbubTMlxnYD2g3dcoR2-90" value="" style="endArrow=classic;startArrow=classic;html=1;rounded=0;exitX=1;exitY=0.25;exitDx=0;exitDy=0;entryX=0.01;entryY=0.243;entryDx=0;entryDy=0;entryPerimeter=0;edgeStyle=orthogonalEdgeStyle;curved=1;" edge="1" parent="1" source="rVbubTMlxnYD2g3dcoR2-81" target="rVbubTMlxnYD2g3dcoR2-84">
          <mxGeometry width="50" height="50" relative="1" as="geometry">
            <mxPoint x="312" y="1639" as="sourcePoint" />
            <mxPoint x="392" y="1649" as="targetPoint" />
          </mxGeometry>
        </mxCell>
        <mxCell id="rVbubTMlxnYD2g3dcoR2-102" value="校验该ID发送情况" style="edgeLabel;html=1;align=center;verticalAlign=middle;resizable=0;points=[];fontStyle=1;fontSize=15;" vertex="1" connectable="0" parent="rVbubTMlxnYD2g3dcoR2-90">
          <mxGeometry x="0.0606" y="-1" relative="1" as="geometry">
            <mxPoint x="-12" y="24" as="offset" />
          </mxGeometry>
        </mxCell>
        <mxCell id="rVbubTMlxnYD2g3dcoR2-91" value="&lt;b&gt;&lt;font style=&quot;font-size: 16px;&quot;&gt;Redis&lt;/font&gt;&lt;/b&gt;" style="text;html=1;strokeColor=none;fillColor=none;align=center;verticalAlign=middle;whiteSpace=wrap;rounded=0;" vertex="1" parent="1">
          <mxGeometry x="405.33" y="1380" width="60" height="30" as="geometry" />
        </mxCell>
        <mxCell id="rVbubTMlxnYD2g3dcoR2-92" value="" style="shape=mxgraph.signs.nature.snowflake;html=1;pointerEvents=1;fillColor=#000000;strokeColor=none;verticalLabelPosition=bottom;verticalAlign=top;align=center;" vertex="1" parent="1">
          <mxGeometry x="398.33" y="1180" width="87" height="98" as="geometry" />
        </mxCell>
        <mxCell id="rVbubTMlxnYD2g3dcoR2-93" value="" style="endArrow=classic;startArrow=classic;html=1;rounded=0;exitX=0.5;exitY=0;exitDx=0;exitDy=0;entryX=0.008;entryY=0.367;entryDx=0;entryDy=0;entryPerimeter=0;edgeStyle=orthogonalEdgeStyle;curved=1;" edge="1" parent="1" source="rVbubTMlxnYD2g3dcoR2-81" target="rVbubTMlxnYD2g3dcoR2-92">
          <mxGeometry width="50" height="50" relative="1" as="geometry">
            <mxPoint x="287.25" y="1369" as="sourcePoint" />
            <mxPoint x="397.25" y="1389" as="targetPoint" />
          </mxGeometry>
        </mxCell>
        <mxCell id="rVbubTMlxnYD2g3dcoR2-101" value="获取全局性ID" style="edgeLabel;html=1;align=center;verticalAlign=middle;resizable=0;points=[];fontStyle=1;fontSize=14;" vertex="1" connectable="0" parent="rVbubTMlxnYD2g3dcoR2-93">
          <mxGeometry x="-0.205" y="-29" relative="1" as="geometry">
            <mxPoint as="offset" />
          </mxGeometry>
        </mxCell>
        <mxCell id="rVbubTMlxnYD2g3dcoR2-94" value="" style="endArrow=classic;startArrow=classic;html=1;rounded=0;exitX=1.006;exitY=0.314;exitDx=0;exitDy=0;exitPerimeter=0;edgeStyle=orthogonalEdgeStyle;curved=1;entryX=0;entryY=0.25;entryDx=0;entryDy=0;" edge="1" parent="1" source="rVbubTMlxnYD2g3dcoR2-84" target="rVbubTMlxnYD2g3dcoR2-82">
          <mxGeometry width="50" height="50" relative="1" as="geometry">
            <mxPoint x="495" y="1529" as="sourcePoint" />
            <mxPoint x="607" y="1519" as="targetPoint" />
          </mxGeometry>
        </mxCell>
        <mxCell id="rVbubTMlxnYD2g3dcoR2-103" value="校验该ID消费情况" style="edgeLabel;html=1;align=center;verticalAlign=middle;resizable=0;points=[];fontStyle=1;fontSize=15;" vertex="1" connectable="0" parent="rVbubTMlxnYD2g3dcoR2-94">
          <mxGeometry x="0.0741" y="-1" relative="1" as="geometry">
            <mxPoint as="offset" />
          </mxGeometry>
        </mxCell>
      </root>
    </mxGraphModel>
  </diagram>
</mxfile>
